<?xml version="1.0" standalone="no"?>
<!DOCTYPE svg PUBLIC "-//W3C//DTD SVG 20010904//EN"
 "http://www.w3.org/TR/2001/REC-SVG-20010904/DTD/svg10.dtd">
<svg version="1.0" xmlns="http://www.w3.org/2000/svg"
 width="1920.000000pt" height="1080.000000pt" viewBox="0 0 1920.000000 1080.000000"
 preserveAspectRatio="xMidYMid meet">
<metadata>
Created by potrace 1.16, written by Peter Selinger 2001-2019
</metadata>
<g transform="translate(0.000000,1080.000000) scale(0.100000,-0.100000)"
fill="#000000" stroke="none">
<path d="M0 5400 l0 -5400 9600 0 9600 0 0 2731 0 2730 -66 -55 c-69 -59 -84
-65 -108 -41 -8 8 -19 15 -23 15 -18 0 -46 27 -36 33 6 4 21 -2 35 -12 l24
-19 87 71 87 72 0 58 c0 54 -1 57 -22 53 -13 -3 -89 -8 -170 -12 l-148 -6 -77
-61 c-43 -33 -83 -64 -90 -69 -6 -5 -23 -6 -37 -2 -35 8 -30 14 108 122 l110
86 163 4 163 4 0 2549 0 2549 -9600 0 -9600 0 0 -5400z m7933 1401 c9 -51 18
-95 19 -96 2 -1 30 -9 63 -17 33 -9 116 -30 183 -47 115 -30 125 -31 136 -15
9 12 20 15 44 9 27 -5 32 -11 32 -34 0 -15 -8 -35 -19 -45 -17 -15 -29 -13
-212 39 -107 30 -199 55 -205 55 -6 0 -17 6 -23 14 -14 17 -51 185 -51 230 1
52 16 9 33 -93z m1267 -8 c-1 -27 -32 -43 -300 -155 -80 -33 -151 -65 -159
-71 -20 -17 -63 -8 -81 17 -22 31 -18 49 13 64 24 12 33 12 60 -1 35 -18 8
-26 277 84 164 67 190 76 190 62z m-1652 -88 c6 -51 10 -59 32 -66 143 -40
367 -100 417 -110 51 -11 67 -10 87 0 14 8 36 11 50 7 21 -5 26 -13 26 -35 0
-56 -50 -77 -110 -46 -31 16 -35 13 -30 -28 2 -21 -26 -46 -53 -47 -10 0 -78
18 -150 39 -73 22 -231 67 -352 101 -121 34 -251 74 -290 88 -70 26 -70 26
-36 33 37 8 67 1 376 -86 373 -105 384 -107 421 -81 18 14 18 15 -11 21 -17 4
-37 9 -45 12 -8 3 -84 25 -169 49 -85 23 -158 49 -162 56 -7 11 -12 42 -24
137 -2 22 0 30 6 24 5 -5 13 -36 17 -68z m2040 43 c-5 -16 -62 -45 -262 -132
-120 -52 -154 -71 -142 -78 9 -5 20 -7 24 -4 4 2 14 0 22 -6 12 -8 12 -9 -2
-4 -10 3 -18 1 -18 -4 0 -24 51 -7 347 118 170 72 223 87 223 63 0 -9 -32 -24
-280 -133 -239 -104 -290 -129 -284 -140 3 -4 -7 -8 -23 -8 -22 0 -25 -2 -13
-10 8 -5 10 -10 4 -10 -6 0 -25 13 -44 30 -29 26 -32 33 -27 67 l6 38 -20 -24
c-11 -13 -22 -21 -26 -18 -3 4 -21 -2 -39 -14 -31 -19 -35 -19 -58 -4 -35 23
-49 68 -27 87 27 23 62 29 78 12 17 -16 45 -18 71 -5 44 24 459 190 475 191
10 0 17 -6 15 -12z m486 -117 c9 -14 -9 -24 -214 -116 -107 -48 -199 -92 -205
-98 -7 -7 -6 -7 3 -2 9 4 26 -2 44 -15 l30 -22 212 92 c281 122 293 127 307
113 14 -14 18 -13 -290 -153 -139 -63 -252 -119 -251 -124 6 -30 -74 -26 -101
5 -9 10 -19 16 -22 13 -3 -3 -4 11 -2 30 4 39 2 39 -52 0 -17 -13 -40 -24 -51
-24 -24 0 -72 41 -72 61 0 47 75 86 106 55 8 -9 19 -16 24 -16 8 0 192 76 415
171 95 40 111 44 119 30z m-2819 -180 c353 -99 382 -106 399 -92 10 9 46 15
74 12 35 -3 29 -94 -6 -105 -22 -7 -73 2 -89 16 -10 8 -12 7 -8 -4 3 -8 -7
-29 -22 -46 -22 -25 -35 -31 -60 -29 -18 1 -33 5 -33 9 0 7 -51 23 -395 122
-272 79 -415 126 -415 138 0 23 112 0 409 -85 179 -52 338 -95 353 -95 18 -1
31 5 38 18 9 17 7 20 -17 26 -16 3 -46 12 -68 19 -22 7 -137 41 -255 75 -118
34 -235 72 -260 83 -42 20 -43 22 -20 28 31 8 -2 16 375 -90z m3303 47 c-4
-14 -114 -71 -290 -152 l-108 -49 35 -24 c25 -17 42 -22 57 -17 12 4 125 53
252 111 163 73 233 100 240 93 16 -16 -15 -36 -141 -95 -259 -119 -378 -177
-385 -188 -4 -7 -11 -12 -15 -13 -4 0 -16 -4 -27 -9 -29 -13 -70 7 -86 42 -15
31 -45 49 -55 32 -3 -5 -22 -16 -42 -26 -27 -12 -38 -14 -41 -5 -2 7 -10 12
-18 12 -9 0 -13 4 -10 9 4 5 2 11 -2 13 -5 1 -12 15 -15 30 -6 22 -2 30 22 47
24 18 34 19 58 10 15 -6 30 -11 33 -11 3 0 4 -4 2 -10 -1 -5 2 -7 8 -3 5 3 18
8 27 10 19 3 418 179 443 194 22 15 62 13 58 -1z m-1870 -29 c31 -7 62 -16 67
-20 9 -6 162 -49 195 -54 8 -1 22 -4 30 -7 8 -3 42 -13 75 -23 33 -10 78 -24
100 -31 22 -7 117 -32 210 -55 94 -23 179 -46 190 -52 11 -6 47 -16 80 -23 33
-7 85 -21 115 -32 30 -10 87 -25 125 -32 39 -7 82 -19 98 -27 15 -7 27 -11 27
-9 0 3 12 1 26 -4 14 -6 54 -17 88 -24 33 -8 86 -21 116 -31 30 -9 62 -17 70
-19 32 -5 88 -36 93 -51 4 -8 13 -15 21 -15 30 0 26 -22 -10 -59 l-38 -38 -60
12 c-34 7 -83 18 -109 26 -56 16 -72 9 -100 -42 -33 -60 -69 -89 -174 -139
-56 -28 -107 -50 -113 -50 -10 0 -111 -51 -120 -61 -3 -3 -36 -18 -75 -33 -38
-15 -72 -31 -75 -35 -7 -9 -117 -61 -130 -61 -6 0 -43 -17 -83 -37 -40 -21
-86 -44 -103 -51 -16 -8 -83 -38 -148 -69 -66 -30 -146 -63 -178 -74 -65 -20
-80 -19 -233 26 -49 14 -106 30 -125 35 -88 22 -107 28 -127 38 -12 7 -33 12
-47 12 -14 0 -27 4 -30 8 -3 5 -58 24 -123 42 -65 18 -149 43 -188 56 -38 12
-108 32 -155 44 -47 12 -98 27 -115 35 -16 7 -59 21 -95 30 -36 10 -79 24 -97
31 -17 8 -35 14 -41 14 -18 0 -107 43 -141 68 -18 13 -42 44 -52 68 -24 53
-46 61 -94 34 -20 -11 -62 -27 -93 -36 -57 -14 -117 -11 -106 7 3 5 -6 13 -20
19 -25 9 -36 30 -16 30 6 0 18 8 28 18 38 38 89 70 122 77 19 4 40 11 45 15 6
5 35 18 65 30 30 11 69 27 85 34 17 8 68 28 115 46 47 19 103 42 126 52 22 10
46 18 52 18 7 0 12 5 12 12 0 6 3 9 6 5 3 -3 21 3 40 14 19 10 42 19 50 19 16
0 44 11 144 58 30 14 66 29 80 35 14 5 33 13 42 18 10 5 25 9 33 9 8 0 15 5
15 10 0 6 8 10 18 10 9 0 40 11 67 25 28 13 58 25 68 25 9 0 17 5 17 12 0 6 3
8 7 5 3 -4 12 -2 20 5 7 6 16 8 19 5 4 -3 16 3 28 14 12 12 30 19 43 16 12 -2
21 -1 18 3 -7 12 170 76 218 79 27 1 74 -3 105 -10z m7247 -39 c-14 -22 -188
-130 -217 -134 -44 -7 -991 -37 -1098 -35 l-85 2 70 7 c39 4 106 10 150 14 44
3 118 11 165 16 47 5 157 14 245 20 88 7 192 16 230 22 39 5 133 13 211 17
139 7 142 7 200 43 39 24 72 37 97 37 22 1 36 -3 32 -9z m-9080 -155 l320 -94
58 15 c53 14 61 14 83 -1 25 -16 28 -25 18 -61 -9 -35 -86 -61 -104 -35 -3 4
-14 11 -24 14 -16 6 -17 5 -6 -8 7 -8 8 -15 3 -15 -5 0 -15 -11 -23 -24 -24
-45 -87 -56 -130 -22 -18 14 -45 23 -220 75 -359 104 -545 164 -563 181 -5 4
5 10 22 13 22 5 115 -19 338 -85 169 -50 315 -92 323 -93 8 -1 28 -7 43 -14
25 -9 31 -8 54 14 29 26 30 25 -37 43 -98 27 -360 107 -470 144 -101 35 -119
44 -100 49 39 12 75 3 415 -96z m4213 93 c-2 -7 -92 -57 -199 -110 -107 -53
-185 -97 -175 -97 11 -1 16 -4 13 -7 -6 -6 29 -44 40 -44 5 0 176 79 358 165
l117 55 212 0 c346 0 365 -11 51 -31 l-271 -17 -249 -121 c-137 -67 -252 -125
-255 -130 -20 -32 -110 -9 -110 28 0 10 -11 26 -25 35 -22 15 -25 15 -37 -3
-19 -27 -72 -36 -100 -17 -18 13 -22 24 -19 54 1 20 10 45 18 54 14 16 73 22
73 7 0 -13 54 -27 70 -18 8 5 89 43 180 84 91 41 188 86 215 99 55 27 99 33
93 14z m-5084 -155 c3 -4 25 -8 49 -9 23 -1 186 -46 362 -99 176 -54 328 -100
338 -102 10 -3 25 1 35 9 28 25 69 30 102 13 17 -9 28 -20 25 -25 -4 -6 -2
-10 4 -10 17 0 -9 -59 -31 -71 -11 -6 -34 -10 -51 -9 -59 4 -77 0 -77 -15 0
-8 -10 -24 -22 -35 -18 -17 -32 -21 -66 -17 -24 3 -51 12 -60 21 -10 8 -92 39
-183 67 -304 94 -244 87 -594 73 -462 -18 -856 -25 -815 -14 19 5 130 16 245
24 116 9 255 21 310 26 55 6 204 15 330 20 l231 10 114 -34 c63 -19 159 -48
214 -65 116 -36 141 -38 156 -11 6 12 16 18 23 14 8 -5 8 -4 2 2 -12 12 -33
19 -265 89 -102 31 -225 70 -274 87 l-90 30 -300 -11 c-318 -12 -462 -14 -455
-7 5 6 203 23 355 32 60 3 150 10 199 14 126 10 181 11 189 3z m5799 -9 c74
-7 94 -15 62 -28 -8 -3 -103 -10 -212 -17 l-198 -12 -166 -83 c-92 -45 -188
-97 -215 -113 -64 -41 -85 -40 -106 8 -10 20 -18 42 -18 47 0 13 37 44 44 37
3 -3 8 2 12 11 5 14 9 14 35 -5 16 -11 29 -17 29 -13 0 3 6 2 13 -4 9 -8 60
12 192 76 178 85 181 86 275 92 151 10 173 10 253 4z m5730 -190 c22 -3 60
-12 85 -20 26 -7 57 -14 69 -14 12 0 25 -5 29 -11 4 -8 -8 -10 -40 -8 -25 2
-46 1 -46 -3 0 -5 0 -11 0 -15 -1 -5 15 -10 35 -13 46 -6 47 -19 5 -48 -44
-30 -64 -25 -68 16 -2 17 -9 32 -15 33 -7 0 -27 2 -45 4 -25 2 -40 -3 -58 -21
-23 -24 -25 -24 -54 -9 l-31 16 -212 -147 -212 -147 -455 -23 c-479 -23 -516
-25 -1054 -50 -296 -13 -342 -17 -365 -33 -48 -34 -202 -131 -206 -131 -3 0
-24 -13 -47 -30 -43 -32 -118 -43 -118 -17 0 6 40 36 88 65 48 29 115 71 150
92 34 22 90 56 123 76 l60 37 152 8 c84 4 258 13 387 19 129 6 473 21 763 35
l529 24 86 59 c48 33 143 99 211 146 69 48 131 84 139 81 7 -3 20 2 28 10 9 8
13 15 9 15 -3 0 -3 5 0 10 4 6 14 8 23 6 10 -3 34 -8 55 -12z m587 -78 c0 -37
-142 -86 -249 -86 -54 0 -55 -1 -272 -157 -120 -87 -242 -175 -270 -195 -48
-35 -58 -38 -119 -38 -36 0 -196 -7 -355 -15 -160 -8 -438 -21 -620 -30 -181
-8 -438 -20 -570 -26 l-240 -11 -163 -105 -163 -104 -42 38 c-23 20 -40 40
-37 43 7 7 22 1 40 -15 13 -11 23 -8 65 20 28 18 109 71 182 117 l132 85 168
7 c92 4 249 11 348 16 99 5 441 22 760 36 l580 27 261 187 260 187 85 7 c47 4
99 11 115 16 48 14 104 12 104 -4z m-7420 -21 c0 -39 -65 -76 -485 -275 -133
-63 -315 -150 -573 -276 -117 -57 -215 -104 -217 -104 -2 0 -111 -52 -242
-116 -270 -132 -239 -126 -418 -70 -60 19 -150 47 -200 61 -49 15 -112 35
-140 45 -27 10 -70 24 -95 30 -25 6 -54 15 -65 20 -11 5 -90 30 -175 55 -302
90 -355 106 -380 117 -32 13 -137 47 -164 53 -41 8 -62 14 -116 34 -30 10 -89
29 -130 41 -41 12 -106 33 -143 46 -38 13 -78 24 -91 24 -12 0 -26 4 -31 9 -6
5 -62 25 -126 45 -114 36 -149 56 -149 89 0 15 7 16 43 11 23 -4 48 -11 55
-17 7 -5 15 -7 19 -4 3 4 11 3 17 -3 7 -5 27 -12 46 -15 19 -3 39 -10 45 -16
13 -13 27 -11 19 4 -6 10 -4 10 7 0 7 -7 23 -13 35 -13 13 0 26 -4 29 -10 3
-5 14 -10 23 -10 9 0 30 -7 46 -15 15 -8 43 -15 60 -15 18 0 38 -6 45 -12 6
-7 16 -14 22 -14 5 -1 10 -2 12 -3 1 -2 13 -4 26 -7 24 -4 101 -28 131 -41 8
-3 24 -8 35 -10 23 -4 123 -35 233 -72 121 -42 223 -73 252 -78 19 -3 40 -9
45 -13 15 -12 127 -40 137 -34 4 3 11 -1 14 -9 2 -7 10 -14 17 -15 35 -3 83
-15 93 -23 7 -5 16 -9 20 -8 5 1 23 -4 39 -11 17 -7 37 -13 45 -14 18 -3 48
-14 72 -27 10 -5 31 -9 48 -9 16 0 30 -5 30 -12 0 -6 3 -9 6 -5 3 3 26 -3 50
-13 24 -11 56 -21 72 -24 15 -2 29 -5 32 -6 3 -1 9 -2 14 -1 4 1 14 -3 21 -9
7 -6 26 -13 42 -16 15 -2 44 -11 64 -19 20 -8 39 -11 43 -8 3 4 6 1 6 -6 0 -8
8 -11 20 -8 11 3 20 1 20 -4 0 -5 12 -7 28 -3 27 6 243 103 252 113 3 3 10 7
15 8 6 1 96 43 200 93 105 51 231 111 280 135 50 23 151 72 225 107 74 36 145
68 158 72 13 5 20 12 16 19 -4 7 -4 9 0 5 10 -8 92 29 551 251 49 24 65 26 65
6z m-4543 -54 c152 -48 152 -48 180 -30 38 25 89 24 110 -1 23 -26 18 -79 -10
-102 -23 -20 -73 -25 -61 -6 4 7 3 8 -4 4 -7 -4 -27 4 -44 17 -18 14 -98 45
-178 70 l-145 45 -315 -13 c-173 -8 -414 -17 -535 -21 l-220 -7 -173 -63
c-189 -70 -182 -68 -182 -55 0 5 15 14 33 21 17 7 56 24 85 37 29 12 57 23 62
23 6 0 29 8 53 19 23 10 56 24 72 31 54 22 325 48 630 60 165 6 311 13 325 14
111 13 166 5 317 -43z m300 -206 c7 -23 -24 -40 -218 -120 l-204 -85 -245 -10
c-663 -27 -1009 -35 -998 -25 3 3 44 7 92 10 48 2 147 11 220 20 73 8 205 19
292 25 88 5 236 14 329 20 94 5 202 12 241 14 58 3 96 14 220 64 82 33 169 70
194 81 46 21 71 23 77 6z m301 -111 c-3 -17 -38 -33 -498 -223 -93 -39 -98
-40 -250 -46 -85 -3 -373 -14 -640 -24 l-485 -19 -269 -109 c-245 -99 -270
-111 -277 -136 -30 -114 -229 -201 -503 -222 -125 -9 -306 -67 -492 -156 -56
-27 -108 -49 -117 -49 -9 0 -18 -4 -21 -9 -9 -14 -46 -20 -46 -7 0 12 120 73
199 101 24 8 49 19 55 23 6 4 47 23 91 41 44 18 111 46 149 63 37 16 91 31
119 34 184 18 353 61 459 116 68 36 98 66 107 109 6 30 13 35 151 91 80 32
152 62 160 65 229 90 234 91 340 97 263 16 428 28 595 43 99 8 284 19 410 22
l230 7 85 36 c193 81 348 147 390 167 46 21 64 16 58 -15z m180 -56 c-2 -18
-40 -38 -233 -119 -126 -54 -246 -104 -265 -113 -19 -8 -84 -36 -145 -61 -60
-26 -119 -52 -130 -59 -28 -17 -134 -54 -175 -60 -52 -9 -384 -25 -625 -31
-362 -9 -306 4 -706 -161 -195 -80 -378 -155 -408 -167 -41 -16 -56 -27 -63
-50 -10 -26 -13 -28 -47 -22 -48 8 -73 -15 -47 -43 9 -10 16 -26 16 -36 0 -21
-29 -33 -40 -16 -5 9 -41 15 -108 18 -111 5 -224 -14 -280 -48 -41 -25 -42
-25 -42 4 0 62 119 110 273 111 82 0 98 3 103 17 3 9 15 18 27 21 19 3 17 5
-13 15 -34 11 -33 12 22 8 51 -4 58 -2 73 20 9 14 20 22 26 18 6 -3 16 1 22 9
18 23 841 357 879 357 33 0 145 12 273 30 39 5 120 10 180 11 61 0 151 5 200
9 50 5 146 10 213 11 85 2 128 6 137 15 7 7 15 10 19 7 3 -4 6 -1 6 6 0 6 6
11 13 9 7 -2 40 9 73 24 33 15 76 30 95 32 71 9 109 23 324 117 210 92 323
138 338 139 13 0 18 -6 15 -22z m6646 -25 c4 -9 3 -20 -1 -24 -4 -4 -129 -10
-278 -13 -148 -2 -256 -3 -240 0 17 2 68 11 115 20 71 13 156 20 371 33 17 0
29 -5 33 -16z m5143 -22 c113 -22 170 -41 231 -77 49 -29 82 -76 75 -105 -7
-25 -17 -24 -35 3 -15 22 -15 22 -22 -15 -4 -22 -15 -41 -28 -48 -48 -26 -368
-23 -368 3 0 7 27 9 83 5 146 -11 270 17 293 67 10 21 8 28 -10 44 -122 111
-427 158 -572 87 -29 -14 -54 -34 -57 -45 -8 -29 25 -64 84 -89 48 -21 51 -21
64 -5 11 16 17 16 39 6 28 -12 31 -26 16 -66 -12 -34 -44 -50 -70 -36 -16 9
-20 8 -20 -4 0 -9 -11 -23 -24 -31 -22 -15 -27 -15 -55 -1 -16 9 -36 16 -44
16 -8 0 -128 -90 -266 -201 -147 -116 -260 -199 -269 -197 -48 9 -17 41 233
239 142 112 267 212 280 222 18 13 29 15 48 8 19 -8 28 -6 38 5 6 8 10 15 8
17 -2 1 -22 12 -44 23 -32 17 -41 28 -43 53 -3 31 -15 40 -27 21 -11 -17 -25
-11 -25 11 0 48 43 81 130 99 72 15 257 10 357 -9z m-4887 -16 c52 -2 80 -8
205 -41 156 -42 165 -45 165 -54 0 -4 -15 -18 -34 -30 -43 -26 -23 -30 -474
107 -82 25 -76 37 14 28 43 -5 99 -9 124 -10z m-6585 -15 c16 -27 -27 -52
-267 -155 -361 -154 -420 -183 -416 -197 5 -15 46 -26 70 -20 10 2 15 9 11 15
-3 5 -1 7 4 4 6 -4 25 0 42 9 17 9 57 19 89 24 38 5 134 42 287 110 321 143
364 160 370 150 13 -22 -19 -48 -102 -85 -48 -21 -199 -87 -335 -146 -136 -59
-259 -117 -274 -128 -14 -11 -30 -18 -35 -15 -5 3 -9 0 -9 -5 0 -6 -3 -10 -7
-9 -9 2 -48 -14 -119 -47 -27 -13 -74 -33 -103 -44 -28 -12 -71 -31 -94 -43
-23 -12 -49 -23 -57 -24 -8 -2 -20 -10 -26 -18 -6 -9 -14 -13 -17 -10 -5 5
-23 -1 -119 -44 -20 -9 -34 -21 -31 -25 3 -5 -4 -6 -16 -2 -12 4 -21 2 -21 -4
0 -6 -7 -11 -15 -11 -8 0 -15 -4 -15 -10 0 -5 -11 -10 -23 -10 -13 0 -27 -3
-31 -7 -3 -4 -13 -8 -21 -9 -8 -1 -28 -12 -45 -24 -16 -12 -39 -22 -49 -23
-11 0 -17 -5 -15 -9 3 -4 -7 -10 -21 -14 -14 -3 -25 -9 -25 -13 0 -13 -109
-53 -122 -45 -7 4 -10 4 -6 -1 12 -12 -21 -31 -79 -45 -29 -8 -53 -17 -53 -22
0 -4 -9 -8 -19 -8 -11 0 -23 -5 -26 -10 -4 -6 -10 -8 -15 -5 -12 7 -60 -16
-54 -26 5 -9 -16 -13 -49 -10 -9 1 -20 -5 -23 -14 -4 -9 -13 -14 -20 -11 -7 3
-20 -2 -29 -10 -8 -9 -15 -13 -15 -9 0 3 -10 -1 -22 -9 -13 -8 -38 -17 -55
-21 -18 -4 -33 -11 -33 -15 0 -5 -18 -14 -40 -20 -22 -6 -40 -15 -40 -20 0 -5
-6 -7 -13 -4 -7 2 -30 -7 -51 -21 -20 -14 -41 -25 -45 -25 -5 0 -16 -19 -25
-41 -15 -36 -15 -44 -3 -58 8 -9 12 -21 10 -28 -2 -6 9 -19 26 -28 25 -13 30
-21 28 -45 -4 -35 -23 -60 -47 -60 -10 0 -21 -7 -24 -15 -7 -18 -65 -45 -96
-45 -19 0 -18 3 10 26 27 23 60 72 60 89 0 3 -6 5 -14 5 -8 0 -17 7 -20 15 -5
14 -8 14 -31 -1 -14 -9 -25 -23 -25 -30 0 -20 -37 -17 -49 4 -6 9 -11 11 -11
5 0 -17 -35 -16 -69 1 -15 8 -51 18 -80 22 -42 5 -52 11 -57 30 -8 30 2 44 32
44 13 0 24 5 24 10 0 6 12 15 26 21 15 5 24 12 21 15 -5 5 -135 -8 -222 -22
l-40 -6 20 20 c15 16 42 24 113 32 51 7 100 9 107 6 27 -10 111 23 170 69 22
16 58 38 80 48 22 10 63 30 91 44 28 14 56 23 61 20 6 -4 23 5 37 18 15 14 34
26 42 26 18 2 24 3 57 17 16 7 31 12 34 12 4 0 14 6 22 14 9 7 27 17 40 21 18
5 22 4 17 -6 -4 -8 2 -2 14 14 12 15 30 27 39 27 10 0 21 3 25 8 4 4 11 7 14
8 16 2 48 18 65 32 9 8 17 12 17 7 0 -4 7 -2 15 5 8 7 22 10 30 6 9 -3 14 -2
11 3 -3 4 5 13 17 19 48 25 137 61 137 56 0 -3 10 2 22 10 12 9 29 16 36 16 8
0 25 9 39 20 14 11 39 20 54 20 16 0 29 4 29 9 0 8 28 21 55 25 6 1 25 9 44
20 24 12 36 15 41 7 4 -8 12 -5 24 8 10 11 24 17 32 14 9 -3 14 0 12 8 -2 7 6
15 17 17 11 2 22 8 25 13 3 4 21 15 40 23 l35 14 -29 8 c-36 9 -382 -1 -736
-22 -310 -18 -309 -18 -335 -32 -11 -6 -36 -18 -55 -26 -19 -8 -53 -22 -75
-32 -22 -9 -44 -18 -50 -19 -5 -1 -30 -12 -55 -23 -25 -11 -74 -32 -110 -47
-36 -15 -86 -38 -112 -51 -27 -14 -48 -23 -48 -19 0 3 -26 -8 -57 -24 -32 -16
-77 -34 -100 -41 -36 -11 -48 -22 -72 -64 -16 -28 -40 -61 -54 -73 -23 -20
-103 -66 -117 -68 -3 0 -11 -4 -18 -8 -22 -14 -171 -47 -213 -47 -27 0 -42 5
-46 16 -9 23 14 64 36 64 24 0 73 21 83 35 4 5 8 7 8 2 0 -4 18 2 40 13 21 11
46 20 55 20 8 0 15 5 15 10 0 6 10 10 23 10 41 0 121 31 144 56 13 14 26 37
29 52 8 31 42 72 60 72 17 0 65 26 58 32 -2 3 6 6 19 6 14 0 62 18 108 40 46
22 99 43 117 47 17 3 32 11 32 16 0 5 9 9 19 9 11 0 23 5 26 10 4 6 12 10 18
9 18 -3 48 12 42 21 -2 4 7 5 20 2 15 -2 25 0 25 7 0 7 3 10 8 8 4 -3 25 3 46
14 22 10 45 19 51 19 7 0 22 9 35 20 13 11 34 20 47 20 12 0 23 4 23 9 0 19
92 28 365 36 88 2 198 8 245 14 47 6 171 12 275 14 186 3 191 4 250 32 33 16
67 30 75 31 9 0 27 7 40 15 14 7 28 12 33 11 4 -1 7 3 7 8 0 6 8 10 19 10 10
0 43 11 72 24 30 13 76 26 103 30 43 7 248 91 531 220 111 50 111 50 120 36z
m11469 -26 c103 -26 159 -72 133 -108 -11 -16 -17 -15 -70 9 -78 34 -224 53
-303 38 -45 -9 -62 -8 -72 1 -19 18 -4 46 32 62 43 19 204 18 280 -2z m-5164
-85 c0 -8 16 -10 49 -6 27 3 64 2 83 -3 18 -5 49 -11 68 -14 19 -2 58 -11 85
-19 28 -8 68 -20 90 -27 137 -41 147 -42 171 -31 36 16 44 14 44 -11 1 -13 9
-33 19 -45 26 -31 91 -73 113 -73 11 0 27 -7 36 -16 11 -12 17 -13 20 -5 3 9
7 9 18 0 11 -9 14 -9 14 0 0 7 5 9 10 6 6 -4 8 -11 5 -16 -5 -8 16 -14 38 -10
4 0 7 -3 7 -7 0 -4 8 -8 18 -9 23 -2 81 -11 115 -19 15 -4 33 -1 41 5 9 8 21
8 39 2 32 -12 102 -14 184 -5 52 6 66 4 90 -13 31 -22 93 -37 180 -42 12 0 28
-7 35 -14 13 -12 44 -22 168 -54 36 -9 68 -20 71 -25 3 -4 18 -9 34 -10 34 -3
54 -23 178 -179 106 -134 227 -282 429 -529 l143 -174 250 -72 c138 -39 468
-133 735 -209 267 -75 492 -143 500 -149 8 -7 27 -18 42 -25 15 -8 37 -25 49
-37 l22 -24 20 32 c15 25 21 28 28 17 24 -39 -3 -90 -38 -70 -10 6 -67 22
-128 36 -119 28 -288 75 -1009 281 -258 74 -470 134 -472 134 -2 0 -126 152
-276 338 -470 582 -417 527 -553 563 -156 40 -225 60 -340 95 -111 35 -128 37
-228 35 -188 -4 -397 35 -510 96 -52 29 -117 94 -117 118 0 18 -14 19 -39 3
-16 -10 -45 -5 -158 26 -76 21 -187 54 -247 73 l-108 35 -277 -11 c-152 -6
-332 -11 -401 -10 l-125 1 65 14 c77 17 185 29 415 44 94 7 172 14 174 16 10
10 131 3 131 -7z m768 -4 c7 -13 13 -13 42 -3 23 9 90 13 195 13 136 0 172 -4
240 -23 135 -39 215 -95 215 -150 0 -28 -20 -39 -32 -18 -13 22 -28 20 -28 -5
0 -42 -18 -57 -89 -73 -78 -18 -232 -21 -332 -6 -87 13 -223 56 -240 76 -8 9
-13 34 -13 55 2 42 -11 52 -21 19 -3 -11 -10 -20 -15 -20 -16 0 -20 18 -9 46
8 23 7 31 -5 40 -23 16 -20 21 22 43 45 24 58 25 70 6z m4813 -82 c-23 -86
-141 -140 -313 -144 l-80 -2 -216 -178 c-119 -99 -221 -179 -228 -179 -6 0
-17 6 -23 14 -13 15 3 30 284 261 194 161 178 152 275 159 167 13 260 47 281
104 16 42 33 13 20 -35z m-11375 12 c-6 -17 -123 -74 -366 -180 -194 -84 -306
-141 -313 -158 -4 -12 1 -13 31 -6 38 10 102 22 196 38 48 9 177 63 446 189
194 91 220 98 197 53 -12 -23 -30 -32 -367 -182 -219 -98 -410 -191 -405 -199
4 -7 -65 -35 -79 -32 -4 2 -13 -2 -20 -7 -6 -5 -37 -19 -68 -31 -32 -12 -60
-25 -62 -29 -3 -4 2 -90 9 -192 8 -101 15 -192 15 -201 0 -16 -45 -73 -58 -73
-4 0 -6 -3 -5 -7 2 -5 -8 -8 -22 -8 -14 0 -25 -4 -25 -10 0 -5 -7 -7 -15 -4
-8 4 -17 -1 -21 -10 -3 -9 -14 -16 -24 -16 -9 0 -29 -9 -43 -20 -15 -12 -32
-17 -43 -13 -11 4 -15 3 -11 -4 4 -7 -15 -20 -48 -34 -30 -12 -55 -26 -55 -30
0 -4 -8 -5 -18 -2 -11 2 -31 -6 -48 -20 -39 -32 -68 -47 -93 -47 -12 0 -29 -8
-40 -19 -10 -10 -32 -26 -48 -36 -16 -9 -40 -34 -53 -55 -13 -21 -36 -45 -52
-54 -22 -14 -28 -24 -28 -51 0 -37 -12 -51 -28 -32 -11 13 -270 16 -327 4 -16
-4 -39 -9 -51 -10 -11 -2 -35 -12 -52 -22 -17 -11 -34 -17 -36 -14 -3 3 -6 21
-8 42 -1 24 -7 37 -16 37 -12 0 -12 3 -1 17 12 15 12 16 -4 10 -10 -4 -23 -7
-28 -7 -5 0 -9 -6 -9 -13 0 -7 -9 -18 -20 -25 -13 -8 -20 -23 -20 -42 0 -17
-4 -30 -10 -30 -10 0 -14 14 -10 39 3 21 -27 -5 -35 -30 -4 -11 -11 -17 -16
-14 -15 10 -10 78 9 106 25 39 70 82 79 76 4 -3 26 4 48 14 62 30 222 59 329
59 101 0 135 9 178 48 37 33 87 60 298 159 41 19 111 53 155 74 44 21 88 39
98 39 9 0 17 5 17 12 0 6 3 9 6 5 3 -3 15 3 27 13 18 18 95 37 124 32 6 -2 14
5 17 15 7 21 -19 381 -27 390 -4 3 -2 14 3 24 7 12 7 20 0 24 -6 4 -8 11 -5
16 13 19 -45 8 -65 -13 -18 -20 -20 -31 -16 -78 3 -30 8 -102 11 -160 3 -58 8
-126 11 -151 5 -43 -7 -72 -20 -51 -3 5 -10 98 -17 208 -7 116 -17 202 -23
206 -6 4 -17 1 -26 -7 -8 -7 -41 -22 -72 -32 -32 -10 -58 -22 -58 -28 0 -5
-32 -23 -70 -39 -39 -15 -70 -32 -70 -37 0 -5 -11 -9 -25 -9 -14 0 -25 -3 -25
-8 0 -9 -47 -30 -108 -48 -25 -8 -48 -18 -51 -22 -9 -12 -59 -42 -71 -42 -6 0
-43 -15 -83 -34 -39 -18 -88 -39 -107 -46 -19 -7 -42 -18 -50 -25 -31 -23
-186 -85 -214 -85 -14 0 -17 -3 -9 -8 8 -5 -8 -15 -45 -27 -31 -10 -66 -25
-77 -32 -12 -7 -30 -14 -42 -16 -12 -2 -30 -10 -40 -19 -23 -21 -103 -49 -116
-41 -6 3 -7 1 -3 -5 4 -7 -13 -17 -49 -27 -30 -9 -55 -21 -55 -26 0 -5 -9 -9
-19 -9 -11 0 -23 -5 -26 -10 -4 -6 -12 -10 -18 -9 -23 4 -67 -13 -60 -24 4 -6
-1 -8 -13 -5 -16 4 -20 -1 -22 -26 -6 -75 -74 -155 -164 -194 -27 -11 -28 -10
-28 17 0 20 8 34 28 46 37 23 112 105 123 134 7 16 6 35 -1 55 -10 29 -9 33
27 64 33 29 229 132 251 132 5 0 35 13 67 29 33 17 62 28 67 25 4 -3 11 1 14
9 3 8 23 20 45 27 21 7 39 16 39 20 0 3 30 17 68 30 37 13 69 27 72 30 3 4 23
13 45 20 22 7 47 18 55 25 8 8 27 17 43 20 15 4 30 11 33 16 3 5 13 9 22 9 9
0 28 9 42 20 14 11 33 20 43 20 9 0 17 4 17 9 0 5 18 11 40 15 21 3 47 14 57
24 10 10 44 24 75 32 31 7 59 19 62 26 3 8 12 14 19 14 7 0 36 11 63 25 27 14
55 25 62 25 6 0 12 5 12 10 0 6 7 10 15 10 8 0 23 4 33 9 34 18 140 61 149 61
5 0 37 14 71 31 43 21 69 28 84 23 13 -3 20 -3 16 1 -8 9 65 47 94 50 10 1 23
7 30 12 18 14 103 40 157 47 38 6 292 113 551 234 83 38 109 40 96 7z m529
-157 c-11 -36 17 -21 -367 -194 -158 -71 -375 -180 -388 -195 -10 -11 -47 -24
-79 -27 -14 -2 -12 -64 6 -206 5 -39 3 -48 -8 -44 -10 3 -17 38 -26 119 -19
186 -18 202 16 222 16 9 39 17 51 17 11 0 19 4 16 9 -11 17 20 29 95 36 71 6
97 16 370 145 162 76 300 139 307 139 9 1 11 -6 7 -21z m6948 8 c31 -7 57 -11
57 -7 0 3 4 0 8 -7 5 -7 24 -14 43 -16 19 -1 45 -8 58 -15 13 -7 32 -11 42 -8
10 3 19 2 19 -3 0 -4 20 -11 45 -15 25 -3 62 -13 81 -21 20 -8 44 -12 54 -9
10 3 24 0 32 -7 7 -7 20 -15 28 -17 8 -2 20 -4 25 -6 91 -22 139 -42 153 -64
9 -14 57 -73 107 -131 113 -131 97 -113 321 -376 104 -121 209 -243 234 -271
l45 -51 205 -57 c113 -30 225 -62 250 -70 25 -7 106 -30 180 -50 120 -33 290
-81 519 -146 73 -21 156 -64 165 -85 19 -48 -30 -37 -729 161 -181 51 -375
105 -430 120 -55 14 -115 31 -133 36 -25 9 -80 66 -240 252 -113 133 -229 267
-257 298 -57 63 -81 91 -179 207 -38 45 -73 79 -79 75 -6 -3 -7 -1 -4 4 4 6 1
15 -6 21 -14 12 -157 54 -157 46 0 -3 -8 0 -17 5 -10 5 -31 11 -48 14 -16 3
-39 8 -50 12 -11 3 -58 16 -105 29 -47 12 -92 26 -100 29 -8 3 -26 8 -40 10
-14 3 -58 14 -99 25 l-74 20 -38 -25 c-28 -18 -46 -24 -65 -19 -18 5 -24 3
-18 -5 4 -8 3 -9 -4 -5 -28 17 -10 44 61 89 39 25 74 46 77 47 3 0 31 -6 63
-14z m-6743 -71 c0 -8 -11 -22 -24 -30 -54 -35 -490 -236 -503 -231 -38 15 3
41 250 158 144 69 265 124 270 121 4 -2 7 -11 7 -18z m337 -119 c-6 -15 -167
-100 -305 -161 -52 -23 -65 -26 -72 -15 -5 8 -6 18 -3 23 11 18 368 186 377
177 5 -5 6 -16 3 -24z m9040 -328 c370 -362 392 -385 511 -519 103 -117 110
-128 94 -142 -13 -11 -20 -12 -29 -4 -6 7 -198 199 -427 427 -282 281 -416
422 -416 436 0 22 8 34 22 34 4 0 115 -105 245 -232z m-4765 130 c226 -65 329
-99 349 -115 27 -23 27 -23 96 -7 94 22 320 14 415 -14 143 -43 228 -105 228
-166 0 -17 7 -21 31 -22 17 -1 35 -7 40 -15 7 -11 11 -11 17 -1 7 10 75 -6
308 -73 164 -47 317 -90 339 -97 22 -6 58 -16 80 -23 22 -7 68 -21 103 -30
l62 -18 277 -371 c152 -204 317 -426 367 -493 l91 -121 100 -30 c643 -195 804
-247 844 -273 44 -29 77 -66 68 -75 -3 -3 -45 4 -94 16 -126 32 -919 272 -927
281 -2 2 -77 103 -166 224 -489 660 -561 753 -587 763 -32 12 -718 213 -805
235 -46 12 -58 12 -58 2 0 -18 -54 -38 -81 -30 -14 5 -19 4 -15 -4 8 -12 -13
-15 -38 -5 -20 8 -21 24 -1 24 18 0 18 2 3 35 -9 19 -8 31 1 49 11 19 11 28 0
47 l-14 24 -3 -30 c-6 -66 -20 -82 -85 -101 -94 -28 -342 -26 -454 3 -147 39
-193 76 -178 145 8 33 25 38 25 7 0 -38 64 -86 153 -115 72 -24 99 -27 217
-28 102 -1 149 3 191 16 65 20 109 57 109 91 0 47 -96 113 -207 142 -58 15
-226 20 -295 9 -36 -6 -36 -7 -22 -29 13 -20 19 -22 47 -14 49 14 198 11 254
-6 91 -27 137 -73 120 -119 -4 -10 -20 -6 -64 15 -101 50 -225 58 -347 23 -27
-7 -52 -11 -56 -9 -5 3 -6 18 -4 34 7 43 -26 60 -71 35 -28 -15 -36 -16 -49
-5 -13 11 -16 11 -16 -2 0 -25 -22 -67 -31 -61 -14 8 -10 42 6 68 23 35 9 54
-54 72 -317 90 -613 182 -625 195 -6 5 -19 9 -30 10 -33 1 43 27 82 28 18 1
177 -40 354 -91z m5205 -80 c81 -78 186 -180 233 -227 133 -134 469 -496 464
-500 -3 -3 -117 89 -134 109 -3 3 -70 66 -150 140 -80 74 -245 230 -367 348
-189 182 -223 219 -223 243 0 18 5 29 14 29 8 0 81 -64 163 -142z m-5487 -55
c162 -47 319 -92 349 -101 50 -14 55 -14 66 1 20 27 35 20 35 -18 0 -28 9 -44
41 -76 95 -95 318 -152 579 -148 115 2 158 -1 205 -15 94 -27 224 -66 290 -86
33 -10 124 -37 202 -61 138 -41 143 -43 170 -83 16 -22 150 -214 298 -426 149
-212 293 -417 320 -457 l50 -72 140 -45 c77 -24 259 -81 405 -126 508 -156
615 -192 655 -218 47 -30 89 -71 82 -79 -14 -14 -323 75 -967 279 -140 44
-269 84 -286 89 -26 8 -83 84 -383 513 l-353 504 -156 45 c-87 25 -236 69
-332 98 l-175 53 -160 1 c-185 2 -236 8 -360 42 -116 32 -196 75 -249 134
l-43 47 -259 77 c-476 141 -574 175 -574 194 0 5 8 11 17 13 62 12 120 0 393
-79z m-8600 0 c0 -46 -29 -80 -86 -99 -30 -10 -54 -21 -54 -25 0 -3 -21 -9
-47 -12 -27 -3 -87 -11 -135 -17 -48 -7 -94 -10 -102 -7 -34 13 -13 25 57 31
191 19 337 85 337 154 0 21 2 22 15 12 8 -7 15 -24 15 -37z m-472 -250 c3 -23
-20 -35 -253 -127 -77 -31 -149 -61 -160 -66 -64 -30 -141 -48 -130 -30 3 6
14 10 24 10 22 0 81 29 81 39 0 4 19 14 43 21 23 8 54 22 69 32 14 10 28 18
31 18 8 0 218 98 247 115 31 18 44 15 48 -12z m6077 -19 c0 -22 -45 -53 -185
-126 -94 -49 -109 -54 -138 -46 -18 5 -32 14 -30 20 6 18 311 177 333 174 12
-2 20 -11 20 -22z m509 -68 c-3 -9 -10 -16 -15 -16 -4 0 -59 -31 -121 -69
-110 -66 -249 -144 -355 -198 -52 -26 -53 -28 -53 -70 0 -85 -59 -156 -172
-208 -80 -36 -160 -55 -293 -67 -88 -8 -125 -16 -140 -29 -11 -9 -116 -69
-233 -133 -117 -64 -229 -126 -250 -138 -20 -11 -126 -70 -234 -130 -109 -60
-198 -111 -198 -112 0 -8 46 -297 110 -693 49 -309 68 -448 61 -460 -12 -24
-343 -226 -628 -384 -89 -50 -87 -39 17 72 33 35 119 93 315 210 149 88 271
162 272 163 3 3 -11 96 -67 446 -80 498 -110 690 -110 705 0 12 76 58 255 155
33 18 65 36 70 40 6 4 46 26 90 49 405 216 505 274 505 298 0 22 3 23 84 23
238 0 462 77 509 175 21 44 21 58 2 95 -14 27 -14 30 0 30 9 0 50 20 93 44
171 96 324 176 331 172 10 -6 74 13 121 35 39 19 43 19 34 -5z m537 -117 c28
-67 50 -104 64 -110 18 -7 419 -138 672 -219 l102 -32 34 21 c50 31 57 27 57
-28 0 -45 3 -51 43 -83 90 -73 195 -116 332 -137 44 -7 107 -16 141 -22 83
-12 160 -11 183 3 15 9 26 8 52 -4 19 -9 70 -27 114 -41 425 -134 525 -169
525 -184 0 -9 11 -31 25 -49 38 -49 321 -573 371 -686 24 -53 78 -165 119
-249 42 -83 75 -153 73 -154 -5 -5 -256 440 -409 725 -78 146 -152 284 -166
307 l-23 42 -333 109 -333 109 -98 -5 c-89 -4 -98 -7 -106 -27 -4 -12 -39 -41
-77 -64 -37 -23 -131 -83 -208 -134 -159 -104 -396 -258 -467 -302 -27 -17
-48 -34 -48 -38 0 -7 332 -844 365 -922 8 -16 21 -50 30 -75 23 -61 35 -90 52
-126 33 -69 31 -72 -252 -275 l-260 -188 0 -78 c-1 -66 -5 -86 -29 -130 -51
-93 -188 -181 -348 -224 -96 -26 -325 -36 -436 -20 -96 14 -221 50 -281 81
-181 92 -270 236 -231 375 19 68 30 64 24 -7 -7 -80 9 -120 75 -186 91 -91
255 -152 466 -173 397 -39 734 102 735 309 0 24 -7 56 -15 71 l-14 29 157 113
c86 62 212 152 278 201 l122 87 -143 358 c-133 335 -190 476 -220 548 -69 163
-116 288 -109 295 9 9 739 481 786 509 35 20 35 34 3 49 -22 10 -33 8 -68 -10
-23 -12 -54 -21 -69 -20 -33 3 -165 49 -193 68 -25 18 -43 18 -60 0 -13 -12
-71 -50 -283 -183 -37 -23 -85 -52 -107 -66 -50 -30 -258 -161 -305 -192 -19
-12 -84 -53 -145 -90 -60 -38 -111 -69 -112 -70 -3 -1 81 -242 130 -375 19
-52 49 -133 65 -180 17 -47 47 -130 67 -185 20 -55 51 -143 70 -195 18 -52 44
-126 58 -165 22 -58 24 -73 14 -93 -7 -13 -70 -63 -142 -112 -120 -80 -130
-90 -136 -124 -3 -20 -8 -39 -11 -42 -8 -8 -88 17 -88 28 0 4 8 8 18 8 22 0
45 53 29 69 -6 6 -9 12 -6 14 2 2 74 52 160 111 l157 108 -43 121 c-24 67 -53
149 -65 182 -38 105 -132 368 -150 420 -22 62 -98 273 -139 383 l-30 82 59 38
c32 20 89 56 127 80 37 23 199 124 358 223 160 100 324 202 366 227 68 40 76
48 66 64 -7 10 -17 18 -24 18 -22 0 -53 39 -53 64 0 34 -13 39 -40 14 l-22
-21 -62 21 c-33 11 -162 52 -286 92 -456 146 -443 141 -463 181 -14 29 -87
227 -87 236 0 15 15 -13 51 -98z m-2313 35 c-3 -17 -47 -41 -456 -251 -182
-93 -223 -111 -228 -98 -4 9 -5 17 -3 19 12 11 185 96 196 96 7 0 13 5 13 11
0 5 4 8 9 5 5 -4 11 -2 13 2 2 7 119 68 350 184 20 10 42 18 48 18 5 0 10 4
10 9 0 8 17 16 43 20 5 0 7 -6 5 -15z m862 -67 c40 2 150 -26 150 -39 0 -4 23
-30 50 -56 54 -52 66 -96 33 -123 -15 -12 -16 -12 -10 3 4 11 -2 28 -16 44
l-23 26 4 -38 c6 -63 -11 -92 -70 -119 -139 -63 -430 -65 -594 -4 -55 21 -74
48 -74 110 0 38 17 46 25 10 18 -81 157 -134 350 -133 257 1 423 116 308 212
-44 35 -80 47 -96 31 -6 -6 -19 -11 -29 -11 -10 0 -18 -4 -18 -10 0 -5 9 -10
19 -10 37 0 79 -78 51 -95 -19 -12 -70 34 -71 63 0 25 -1 25 -10 7 -9 -19 -20
-20 -147 -20 -129 0 -140 -2 -192 -27 -53 -27 -69 -25 -70 8 0 19 42 56 89 77
38 17 67 21 158 22 105 0 113 1 122 22 9 21 7 22 -66 28 -79 8 -184 -4 -263
-30 -67 -22 -180 -110 -187 -146 -7 -36 -21 -37 -29 -4 -19 77 79 155 236 189
103 22 141 24 245 18 50 -4 106 -6 125 -5z m2065 -9 c70 0 406 -102 407 -123
1 -6 -15 -19 -35 -30 l-36 -20 -206 69 c-138 46 -209 75 -215 87 -14 26 -13
28 13 23 12 -3 45 -6 72 -6z m1003 -164 c161 -33 282 -114 282 -189 0 -41 -17
-55 -29 -23 -5 13 -16 30 -25 37 -14 12 -15 10 -10 -16 10 -50 -19 -101 -68
-123 -66 -28 -186 -44 -296 -37 -104 6 -136 13 -126 29 4 7 38 8 93 4 194 -15
381 50 381 134 0 59 -118 133 -258 160 -63 13 -250 9 -284 -5 -17 -7 -17 -8 0
-30 13 -17 22 -21 38 -15 76 29 237 18 325 -22 52 -24 84 -67 74 -98 -7 -21
-20 -26 -30 -11 -10 17 -114 51 -187 61 -80 12 -179 0 -239 -29 -32 -16 -39
-16 -43 -4 -3 8 -3 25 0 38 11 45 -38 71 -71 39 -14 -15 -18 -15 -40 0 -24 16
-25 16 -25 -8 0 -13 -7 -29 -15 -36 -8 -7 -15 -21 -15 -32 0 -10 -4 -16 -10
-13 -16 10 -12 58 6 84 16 22 16 24 -6 41 l-22 17 47 26 c58 33 84 36 54 6
-28 -28 -21 -31 31 -12 125 45 325 57 468 27z m-3641 -155 c63 -28 137 -50
192 -58 24 -3 46 -11 48 -17 2 -7 -16 -22 -41 -34 -44 -21 -47 -21 -103 -5
-32 9 -79 28 -104 42 l-46 24 -59 -34 c-32 -18 -151 -82 -264 -142 -113 -59
-239 -127 -280 -150 -41 -24 -154 -84 -250 -135 -238 -125 -238 -126 -234
-152 2 -13 20 -162 40 -333 19 -170 48 -413 64 -540 23 -193 26 -233 15 -251
-12 -18 -110 -80 -269 -169 -23 -13 -61 -35 -86 -49 -50 -29 -75 -33 -83 -12
-10 26 69 88 236 186 93 54 173 102 178 107 5 5 2 64 -7 138 -8 72 -39 327
-67 568 l-53 439 26 17 c14 10 81 48 150 84 69 36 305 162 525 280 220 119
405 216 412 216 6 1 33 -8 60 -20z m-985 -86 c-60 -116 -241 -192 -497 -208
l-110 -7 -164 -84 c-90 -46 -165 -84 -167 -84 -2 0 -4 11 -4 25 0 20 5 25 25
25 13 0 28 6 32 13 14 21 277 147 308 147 17 0 68 7 115 16 47 8 105 19 130
23 121 22 276 100 322 162 29 39 35 22 10 -28z m5288 -98 c41 -13 161 -50 265
-84 105 -33 202 -63 217 -66 14 -4 33 -14 41 -23 24 -27 197 -330 197 -344 0
-8 20 -40 45 -73 25 -33 50 -76 56 -95 7 -19 32 -75 57 -125 25 -49 54 -108
65 -130 42 -88 -27 16 -153 230 -46 77 -104 174 -130 215 -25 41 -68 112 -95
158 -32 56 -57 87 -74 94 -24 9 -157 52 -619 198 l-162 51 -31 -26 c-57 -48
-86 -58 -127 -44 -48 15 -60 27 -36 35 69 24 136 60 164 89 l32 33 106 -35
c59 -18 141 -45 182 -58z m-5526 -902 c31 -291 60 -549 63 -575 4 -38 2 -48
-9 -48 -11 0 -18 26 -27 108 -68 622 -110 1026 -105 1033 3 5 8 9 12 9 4 0 34
-237 66 -527z m506 471 c0 -4 38 -263 86 -577 58 -393 82 -573 75 -580 -6 -6
-13 -9 -15 -6 -2 2 -32 191 -66 419 -34 228 -72 487 -85 574 -13 88 -22 163
-19 168 6 10 24 11 24 2z m-1163 -518 c18 -305 24 -452 17 -463 -11 -18 -281
-163 -303 -163 -11 0 -11 4 2 18 10 10 17 23 17 28 0 21 70 75 168 129 l103
58 -6 71 c-11 136 -45 701 -45 751 1 36 3 46 10 34 5 -9 22 -217 37 -463z
m3821 317 c11 -32 104 -298 207 -592 102 -293 184 -540 181 -548 -16 -42 -27
-15 -224 552 -17 50 -63 182 -102 295 -101 290 -110 318 -104 335 11 27 22 16
42 -42z m-3955 -327 c11 -202 16 -370 13 -373 -18 -18 -18 -23 -51 621 -6 105
-5 128 7 124 10 -4 17 -85 31 -372z m4525 307 c8 -15 328 -831 433 -1102 16
-41 26 -78 23 -82 -13 -22 -34 -5 -52 44 -11 28 -40 104 -65 167 -242 619
-367 949 -367 968 0 26 16 29 28 5z m-4968 -416 c1 -144 1 -268 1 -274 -1 -7
-20 -22 -42 -34 -63 -32 -71 -11 -19 50 l42 51 -2 228 c-1 125 -1 243 0 262 2
35 2 35 10 7 5 -15 9 -146 10 -290z m4343 -993 c3 -4 2 -15 -3 -24 -6 -12 -31
-22 -76 -29 -95 -17 -152 -41 -248 -106 -95 -63 -114 -86 -118 -140 -2 -32 -4
-35 -15 -19 -7 10 -13 33 -13 51 0 127 160 236 387 262 37 5 71 9 74 10 3 0 9
-2 12 -5z m127 -114 c14 -7 25 -7 39 2 15 9 28 8 65 -6 26 -10 45 -23 43 -30
-2 -6 13 -30 34 -53 38 -41 47 -71 33 -107 -7 -19 -24 -21 -24 -3 0 7 -21 33
-47 59 l-48 45 -160 -1 c-152 -1 -163 -2 -218 -28 -37 -17 -61 -35 -64 -48 -8
-30 -27 -19 -31 18 -8 85 124 161 281 162 43 0 87 -5 97 -10z m-499 -140 c-6
-93 82 -169 247 -210 88 -22 243 -26 337 -9 117 22 236 95 251 156 4 13 4 42
0 63 -7 46 -4 47 58 20 48 -20 52 -28 40 -89 -7 -31 -24 -43 -24 -16 0 8 -2
15 -4 15 -2 0 -11 3 -19 6 -10 4 -18 -7 -26 -41 -28 -111 -139 -163 -374 -172
-143 -6 -240 6 -349 43 -95 32 -113 45 -144 106 -22 43 -25 61 -21 105 3 29 9
57 12 63 12 19 19 1 16 -40z"/>
<path d="M8588 6106 c-20 -6 -40 -14 -44 -18 -4 -5 -15 -8 -25 -8 -9 0 -57
-18 -106 -41 -48 -23 -97 -45 -108 -49 -11 -4 -50 -22 -87 -39 -37 -17 -73
-31 -79 -31 -6 0 -23 -6 -37 -14 -35 -17 -124 -53 -183 -73 -26 -8 -59 -26
-75 -38 -24 -19 -27 -27 -18 -41 15 -26 157 -74 649 -219 83 -24 188 -56 234
-70 146 -43 152 -42 546 145 61 29 162 77 225 106 152 72 165 80 165 101 0 31
-72 58 -294 109 -35 8 -67 17 -72 19 -5 3 -59 19 -121 35 -62 16 -192 51 -288
78 -206 59 -233 64 -282 48z"/>
<path d="M7867 6040 c-32 -16 -85 -34 -117 -41 -32 -6 -68 -20 -79 -30 -11
-11 -29 -19 -41 -19 -11 0 -28 -4 -38 -9 -9 -5 -38 -19 -65 -31 -26 -12 -52
-30 -57 -40 -8 -16 -3 -20 37 -34 70 -24 88 -21 113 19 12 19 25 35 30 35 5 0
21 10 37 23 15 13 54 34 85 48 32 13 60 32 64 42 3 9 10 17 15 17 6 0 7 -4 4
-10 -9 -15 2 -12 61 17 37 18 50 29 42 35 -20 12 -29 10 -91 -22z"/>
<path d="M14490 5284 c-66 -12 -73 -15 -62 -26 7 -7 62 -11 152 -11 77 0 140
-3 140 -7 0 -4 12 -11 28 -15 37 -9 82 -54 82 -81 0 -27 -16 -40 -33 -26 -7 6
-45 20 -84 32 -61 18 -88 21 -165 16 -51 -3 -112 -8 -135 -12 -39 -6 -41 -5
-36 15 5 20 -20 61 -37 61 -13 0 -50 -37 -50 -50 0 -28 69 -77 141 -101 65
-21 92 -24 224 -24 140 0 153 2 199 25 28 14 55 33 60 42 26 43 -62 113 -179
142 -64 16 -204 27 -245 20z"/>
</g>
</svg>
